<?xml version="1.0" standalone="no"?>
<!DOCTYPE svg PUBLIC "-//W3C//DTD SVG 20010904//EN"
 "http://www.w3.org/TR/2001/REC-SVG-20010904/DTD/svg10.dtd">
<svg version="1.0" xmlns="http://www.w3.org/2000/svg"
 width="512.000000pt" height="512.000000pt" viewBox="0 0 512.000000 512.000000"
 preserveAspectRatio="xMidYMid meet">
<metadata>
Created by potrace 1.14, written by Peter Selinger 2001-2017
</metadata>
<g transform="translate(0.000000,512.000000) scale(0.100000,-0.100000)"
fill="#000000" stroke="none">
<path d="M2448 5107 c-60 -23 -125 -65 -148 -96 -84 -119 -80 -243 11 -354 59
-72 188 -116 286 -98 115 22 187 74 229 166 37 79 37 150 1 225 -32 68 -65
100 -137 136 -66 33 -182 43 -242 21z"/>
<path d="M2070 4669 c-180 -36 -253 -55 -257 -66 -3 -6 3 -38 12 -70 85 -291
116 -578 96 -900 -15 -226 -29 -319 -82 -523 -83 -318 -228 -626 -434 -926
l-80 -116 -50 6 c-120 15 -420 18 -580 7 -245 -17 -356 -32 -585 -77 -122 -24
-113 -14 -108 -107 2 -47 14 -115 28 -158 l23 -77 58 14 c104 24 252 52 334
63 225 30 595 51 595 34 0 -11 -84 -91 -145 -138 -21 -16 -59 -48 -84 -70 -82
-72 -164 -129 -316 -219 -55 -33 -102 -63 -105 -66 -3 -4 -33 -21 -67 -39
l-62 -33 27 -42 c14 -22 46 -67 69 -98 24 -31 43 -60 43 -65 0 -4 12 -21 26
-37 l25 -29 52 28 c29 15 59 33 67 40 8 6 56 36 105 65 113 66 315 201 315
210 0 4 21 22 48 40 26 19 56 42 67 51 169 146 190 165 285 267 71 77 90 91
116 92 57 0 263 -46 474 -107 137 -40 190 -59 190 -71 0 -4 -35 -27 -78 -52
-101 -58 -246 -160 -277 -195 -5 -6 -28 -25 -50 -41 -67 -49 -155 -125 -225
-194 -87 -87 -237 -248 -255 -274 -11 -16 -35 -46 -52 -66 -18 -21 -33 -41
-33 -45 0 -4 -17 -28 -39 -54 -21 -25 -61 -82 -89 -125 l-51 -79 46 -31 c64
-43 89 -58 153 -93 95 -53 90 -54 151 39 116 179 274 367 423 508 38 36 86 81
107 100 122 115 417 321 586 409 58 31 64 32 90 18 15 -9 44 -23 63 -33 55
-28 154 -89 202 -126 25 -18 54 -38 64 -45 248 -159 523 -425 742 -717 29 -38
60 -84 68 -101 8 -16 27 -45 43 -64 l28 -34 98 52 c54 29 104 59 112 67 8 8
28 21 44 29 16 9 29 18 29 21 0 3 -11 22 -25 42 -14 20 -25 40 -25 45 0 4 -50
74 -111 155 -136 180 -363 426 -464 503 -16 13 -32 26 -35 29 -3 4 -41 35 -85
70 -44 34 -82 66 -85 70 -14 20 -254 178 -292 193 -40 15 -14 33 100 69 180
57 480 128 542 128 21 0 46 -21 116 -96 136 -145 331 -313 503 -432 91 -63
269 -172 280 -172 5 0 14 -7 21 -15 12 -14 117 -75 130 -75 6 0 80 96 80 105
0 3 18 29 41 57 22 28 47 64 55 79 l14 29 -58 29 c-32 16 -64 36 -71 45 -8 9
-18 16 -23 16 -12 0 -228 135 -304 191 -139 100 -326 267 -317 282 10 16 369
-4 598 -34 84 -11 297 -52 352 -68 l33 -10 25 82 c36 122 57 219 48 227 -16
16 -244 60 -428 84 -272 36 -643 44 -865 20 l-55 -6 -43 64 c-169 249 -254
400 -337 593 -47 112 -121 331 -154 460 -6 22 -22 121 -37 220 -22 151 -27
214 -27 395 0 206 3 244 42 500 6 36 26 120 44 187 29 107 32 123 18 127 -75
23 -321 69 -328 63 -9 -10 -75 -297 -93 -409 -78 -475 -32 -994 130 -1463 78
-224 302 -665 383 -753 26 -28 16 -37 -48 -47 -34 -6 -120 -27 -265 -67 -19
-5 -46 -12 -60 -15 -14 -3 -34 -12 -45 -20 -11 -7 -38 -18 -60 -24 -44 -12
-189 -67 -278 -105 l-58 -26 -77 33 c-98 41 -162 65 -235 89 -32 11 -72 26
-90 34 -47 21 -187 61 -316 90 -62 14 -115 27 -118 29 -2 3 14 29 36 58 23 30
48 70 57 89 10 19 29 53 44 75 38 56 151 280 200 398 43 102 129 364 148 452
118 542 103 1076 -44 1568 -6 19 -16 19 -84 6z"/>
<path d="M2480 2596 c-110 -24 -170 -72 -216 -171 -40 -84 -30 -169 29 -252
27 -39 89 -89 111 -91 5 0 12 -5 16 -11 9 -16 116 -32 164 -25 57 8 105 24
125 40 9 8 34 29 55 47 83 68 110 199 62 303 -38 83 -117 145 -201 158 -22 4
-51 8 -65 11 -14 2 -50 -2 -80 -9z"/>
</g>
</svg>
